HIERARCHY
ROOT SpineBase
{
  OFFSET 0.000000 0.000000 0.000000
  CHANNELS 6 Xposition Yposition Zposition Zrotation Xrotation Yrotation
  JOINT SpineMid
  {
    OFFSET 0.000000 10.769264 0.000000
    CHANNELS 3 Zrotation Xrotation Yrotation
    JOINT SpineShoulder
    {
      OFFSET -0.286794 7.900738 -0.289048
      CHANNELS 3 Zrotation Xrotation Yrotation
      JOINT Neck
      {
        OFFSET -0.135705 2.575173 -0.175763
        CHANNELS 3 Zrotation Xrotation Yrotation
        JOINT Head
        {
          OFFSET 1.653285 5.349236 2.853243
          CHANNELS 3 Zrotation Xrotation Yrotation
          End Site
          {
            OFFSET 0 0 0
          }
        }
      }
      JOINT ShoulderLeft
      {
        OFFSET -5.366600 0.923602 3.055432
        CHANNELS 3 Zrotation Xrotation Yrotation
        JOINT ElbowLeft
        {
          OFFSET -3.791552 -12.376103 -1.900162
          CHANNELS 3 Zrotation Xrotation Yrotation
          JOINT WristLeft
          {
            OFFSET -3.755463 -9.653354 -7.824228
            CHANNELS 3 Zrotation Xrotation Yrotation
            JOINT HandLeft
            {
              OFFSET -1.309235 -2.873336 -2.353891
              CHANNELS 3 Zrotation Xrotation Yrotation
              JOINT HandTipLeft
              {
                OFFSET 0.431452 -0.440896 -0.740455
                CHANNELS 3 Zrotation Xrotation Yrotation
                End Site
                {
                  OFFSET 0 0 0
                }
              }
              JOINT ThumbLeft
              {
                OFFSET 0.195425 -0.368095 -0.468798
                CHANNELS 3 Zrotation Xrotation Yrotation
                End Site
                {
                  OFFSET 0 0 0
                }
              }
            }
          }
        }
      }
      JOINT ShoulderRight
      {
        OFFSET 5.763032 0.038209 -5.049873
        CHANNELS 3 Zrotation Xrotation Yrotation
        JOINT ElbowRight
        {
          OFFSET -0.934711 -9.893471 -11.693214
          CHANNELS 3 Zrotation Xrotation Yrotation
          JOINT WristRight
          {
            OFFSET -2.128605 -4.090158 -13.347260
            CHANNELS 3 Zrotation Xrotation Yrotation
            JOINT HandRight
            {
              OFFSET -1.558472 -0.175425 -8.122689
              CHANNELS 3 Zrotation Xrotation Yrotation
              JOINT HandTipRight
              {
                OFFSET 0.437323 -0.396088 -3.156236
                CHANNELS 3 Zrotation Xrotation Yrotation
                End Site
                {
                  OFFSET 0 0 0
                }
              }
              JOINT ThumbRight
              {
                OFFSET 1.133644 1.353644 -1.371969
                CHANNELS 3 Zrotation Xrotation Yrotation
                End Site
                {
                  OFFSET 0 0 0
                }
              }
            }
          }
        }
      }
    }
  }
  JOINT HipLeft
  {
    OFFSET -3.260111 0.015152 0.114181
    CHANNELS 3 Zrotation Xrotation Yrotation
    JOINT KneeLeft
    {
      OFFSET -14.597574 -4.180555 -19.233414
      CHANNELS 3 Zrotation Xrotation Yrotation
      JOINT AnkleLeft
      {
        OFFSET -1.155589 -14.564879 -0.716684
        CHANNELS 3 Zrotation Xrotation Yrotation
        JOINT FootLeft
        {
          OFFSET -2.393311 0.144224 -8.150562
          CHANNELS 3 Zrotation Xrotation Yrotation
          End Site
          {
            OFFSET 0 0 0
          }
        }
      }
    }
  }
  JOINT HipRight
  {
    OFFSET 1.809525 0.020654 -2.989986
    CHANNELS 3 Zrotation Xrotation Yrotation
    JOINT KneeRight
    {
      OFFSET -10.761229 -3.013873 -22.007491
      CHANNELS 3 Zrotation Xrotation Yrotation
      JOINT AnkleRight
      {
        OFFSET -10.529073 -10.378536 -0.841651
        CHANNELS 3 Zrotation Xrotation Yrotation
        JOINT FootRight
        {
          OFFSET -7.502200 1.099864 -1.889831
          CHANNELS 3 Zrotation Xrotation Yrotation
          End Site
          {
            OFFSET 0 0 0
          }
        }
      }
    }
  }
}
MOTION
Frames: 13
Frame Time: 0.033333
220.979619 18.730283 448.482867 -0.000000 0.000000 31.479371 -0.000000 0.000000 -31.479371 -0.000000 0.000000 0.000000 -0.000000 0.000000 0.000000 0.000000 0.000000 0.000000 -0.000000 0.000000 0.000000 -0.000000 0.000000 0.000000 -0.000000 0.000000 0.000000 -0.000000 0.000000 0.000000 0.000000 0.000000 0.000000 0.000000 0.000000 0.000000 -0.000000 0.000000 0.000000 -0.000000 0.000000 0.000000 -0.000000 0.000000 0.000000 -0.000000 0.000000 0.000000 0.000000 0.000000 0.000000 0.000000 0.000000 0.000000 -0.000000 0.000000 -31.479371 -0.000000 0.000000 0.000000 -0.000000 0.000000 0.000000 0.000000 0.000000 0.000000 -0.000000 0.000000 -31.479371 -0.000000 0.000000 0.000000 -0.000000 0.000000 0.000000 0.000000 0.000000 0.000000
220.553990 18.505336 448.550205 -1.241176 -0.508049 33.035022 -0.076413 0.121746 -33.105665 0.475669 -0.192452 -0.031848 6.473500 -1.978463 -2.066991 0.000000 0.000000 0.000000 -1.448317 -0.931806 0.921867 8.321338 0.647007 -5.631779 -1.098870 1.079938 0.299576 -4.914761 -0.745761 4.273744 0.000000 0.000000 0.000000 0.000000 0.000000 0.000000 2.481657 5.923345 -2.258892 -1.616392 -7.318033 4.311384 0.138213 3.557585 -2.234451 -0.128308 -1.077082 3.972895 0.000000 0.000000 0.000000 0.000000 0.000000 0.000000 1.125243 0.655759 -32.341647 12.332681 5.530551 -2.275274 -11.132121 -7.205449 7.323159 0.000000 0.000000 0.000000 1.499250 0.485922 -33.739484 0.258014 -0.713572 0.703075 -0.000000 0.000000 0.000000 0.000000 0.000000 0.000000
220.272385 18.341008 448.613830 -2.039124 -0.878632 34.302176 -0.137754 0.201591 -34.425904 0.839948 -0.338562 -0.055341 10.529279 -3.382658 -3.294143 0.000000 0.000000 0.000000 -2.222796 -1.727439 1.550913 14.421381 0.676567 -10.287679 -1.462544 1.848923 0.023773 -9.431013 -1.657567 8.138630 0.000000 0.000000 0.000000 0.000000 0.000000 0.000000 4.794281 11.401595 -4.701738 -2.798705 -14.135677 8.081518 0.416054 6.332020 -4.167040 -0.516735 -2.704590 8.614671 0.000000 0.000000 0.000000 0.000000 0.000000 0.000000 1.842143 1.230246 -32.956216 24.095403 9.972139 -5.227234 -21.543066 -13.754354 12.105725 0.000000 0.000000 0.000000 2.523779 0.849451 -35.485867 1.313880 -0.879991 0.779035 -0.859717 -0.344868 0.413953 0.000000 0.000000 0.000000
220.134804 18.237299 448.673739 -2.366263 -1.101679 35.252358 -0.189655 0.234987 -35.404525 1.073647 -0.441333 -0.066616 12.715455 -4.332947 -3.939988 0.000000 0.000000 0.000000 -2.231785 -2.301258 1.867550 18.062726 0.454529 -13.643843 -1.306595 2.263269 -0.518507 -13.502220 -2.272682 12.026540 0.000000 0.000000 0.000000 0.000000 0.000000 0.000000 6.717492 15.853776 -7.032181 -3.563812 -19.816578 11.172602 0.747134 8.183380 -5.798607 -1.033236 -4.933904 13.705486 0.000000 0.000000 0.000000 0.000000 0.000000 0.000000 2.112803 1.771930 -33.291786 34.113489 12.891901 -8.217361 -30.339532 -18.921200 14.676338 0.000000 0.000000 0.000000 3.027853 1.149183 -36.687357 1.730777 -1.025016 0.830519 -1.705786 -0.314259 1.175581 0.000000 0.000000 0.000000
220.141247 18.194208 448.729934 -2.206917 -1.170863 35.868202 -0.238290 0.220338 -36.019959 1.165131 -0.503143 -0.063274 13.356661 -4.934394 -4.139021 0.000000 0.000000 0.000000 -1.429871 -2.601400 1.862159 19.211746 0.261376 -15.565624 -0.884640 2.313428 -1.020055 -16.290713 -2.714321 14.453363 0.000000 0.000000 0.000000 0.000000 0.000000 0.000000 7.929118 18.776423 -8.863275 -3.982027 -23.773610 13.413083 1.053864 9.036975 -7.112012 -1.479774 -7.700708 18.916786 0.000000 0.000000 0.000000 0.000000 0.000000 0.000000 1.912926 2.313444 -33.328519 41.822650 14.412293 -10.706936 -37.101445 -22.571064 15.587483 0.000000 0.000000 0.000000 2.983696 1.425819 -37.325056 1.985211 -0.981777 0.648982 -1.866080 -0.503036 1.446772 0.000000 0.000000 0.000000
220.291714 18.211736 448.782415 -1.557820 -1.083529 36.133849 -0.289501 0.158765 -36.255546 1.110539 -0.525504 -0.044601 12.614289 -5.255190 -3.951030 0.000000 0.000000 0.000000 0.179462 -2.613822 1.530217 17.921709 0.242566 -16.014495 -0.363089 2.012957 -1.295004 -17.875680 -2.649089 15.822140 0.000000 0.000000 0.000000 0.000000 0.000000 0.000000 8.114523 19.853818 -9.835008 -4.155214 -25.601894 14.637472 1.278958 8.896162 -8.077811 -1.671058 -10.792096 23.874688 0.000000 0.000000 0.000000 0.000000 0.000000 0.000000 1.230388 2.867378 -33.047511 47.149279 14.843558 -12.435479 -41.760292 -24.873639 15.266335 0.000000 0.000000 0.000000 2.379632 1.697018 -37.380644 2.078479 -0.752718 0.231961 -1.408339 -0.918056 1.022214 0.000000 0.000000 0.000000
221.008853 18.368731 448.921127 0.568331 -0.831744 34.235451 -0.570274 0.026642 -34.264212 0.579094 -0.458205 -0.003641 8.673553 -4.359596 -3.039216 0.000000 0.000000 0.000000 5.132676 -2.380554 0.423241 9.176271 1.805794 -13.039286 0.754523 0.612842 -1.180622 -16.810859 -1.111178 15.374350 0.000000 0.000000 0.000000 0.000000 0.000000 0.000000 6.059070 19.791264 -9.165900 -2.871677 -27.755297 14.413926 1.214350 8.878852 -9.720262 0.959767 -25.815077 33.693453 0.000000 0.000000 0.000000 0.000000 0.000000 0.000000 -0.642501 3.314853 -31.523671 45.278594 14.566219 -11.737306 -39.965626 -24.962408 13.525173 0.000000 0.000000 0.000000 0.220239 2.296423 -34.509283 2.071937 -0.208771 -0.828412 -1.510222 -1.001317 1.111044 0.000000 0.000000 0.000000
221.359577 18.881299 448.790618 2.407163 -0.057509 33.420167 -0.105849 -0.491342 -33.334089 0.793164 -0.438831 0.113488 2.893679 -4.132014 -1.831083 0.000000 0.000000 0.000000 7.751704 -1.856067 -0.949876 1.241355 -0.143391 -8.624833 2.800597 -1.464048 -1.378957 -17.061688 3.493254 15.078786 0.000000 0.000000 0.000000 0.000000 0.000000 0.000000 2.019684 15.865247 -7.565046 -2.440399 -24.470377 12.766517 1.099584 7.775456 -9.632416 0.426105 -21.951451 35.561076 0.000000 0.000000 0.000000 0.000000 0.000000 0.000000 -2.707927 2.634482 -29.880303 31.375308 13.966134 -9.935973 -26.285067 -22.472499 13.006626 0.000000 0.000000 0.000000 -1.977872 1.373503 -33.395248 0.598915 1.790937 -1.882420 -0.540041 -1.809555 1.864530 0.000000 0.000000 0.000000
221.748584 19.503881 448.405693 4.867371 1.549493 33.374846 -0.306199 -0.423555 -33.205515 0.687039 -0.378936 0.221327 -1.519359 -5.815805 -0.791632 0.000000 0.000000 0.000000 9.607644 -1.833242 -2.191058 -7.021763 -2.744035 -3.070943 5.314770 -3.459265 -2.395895 -14.970807 6.889597 11.526428 0.000000 0.000000 0.000000 0.000000 0.000000 0.000000 -1.806027 8.764464 -5.451836 -2.238609 -17.701049 10.221199 1.070872 5.098015 -8.749890 -0.945853 -15.392828 37.801624 0.000000 0.000000 0.000000 0.000000 0.000000 0.000000 -5.862060 2.511795 -28.623149 37.566518 13.053543 -12.060745 -31.589292 -25.059934 8.693739 0.000000 0.000000 0.000000 -5.185275 0.492102 -32.048751 0.161443 3.026961 -3.539872 0.966629 -2.266133 3.164912 0.000000 0.000000 0.000000
221.584538 19.168778 448.220437 5.224500 1.827183 35.008501 -0.763162 -0.072058 -34.860983 0.294945 -0.400527 0.188273 -0.236386 -6.532438 -0.938392 0.000000 0.000000 0.000000 8.016272 -1.329203 -2.126850 -6.357044 -0.579697 -3.215927 3.156008 -1.965628 -1.514927 -10.820150 3.010187 9.721021 0.000000 0.000000 0.000000 0.000000 0.000000 0.000000 -0.637465 8.429852 -6.077170 -2.979204 -16.477850 10.534403 1.455701 0.356829 -6.432145 -1.781277 -14.339129 35.019722 0.000000 0.000000 0.000000 0.000000 0.000000 0.000000 -6.466541 3.901441 -29.592308 51.299963 3.391191 -9.657686 -45.790315 -17.319911 9.769676 0.000000 0.000000 0.000000 -5.580557 0.912790 -33.665131 -0.064054 3.333537 -4.087137 1.096796 -2.684284 4.126643 0.000000 0.000000 0.000000
221.738326 19.363249 447.974557 6.780685 2.352460 37.529607 -1.737909 0.854265 -37.422231 -0.123060 -0.582525 0.169776 0.433468 -7.328641 -1.046720 0.000000 0.000000 0.000000 7.876867 -0.440368 -2.583298 -10.881656 -2.375945 1.223102 2.942637 -1.941703 -1.457021 -5.555356 4.042743 5.269124 0.000000 0.000000 0.000000 0.000000 0.000000 0.000000 0.411707 8.226533 -7.084992 -3.811988 -17.068711 12.594059 1.666842 1.675042 -7.760901 -0.772419 -20.421411 33.497414 0.000000 0.000000 0.000000 0.000000 0.000000 0.000000 -7.828562 5.107176 -32.250827 57.099074 6.230269 -11.605365 -51.427445 -21.836646 5.075719 0.000000 0.000000 0.000000 -7.221348 1.332517 -35.615434 -0.088917 3.933336 -4.881796 1.122830 -2.855176 4.796084 0.000000 0.000000 0.000000
221.574641 19.511173 447.848375 6.912897 2.130588 39.716430 -1.672012 1.708910 -39.627034 -0.728451 -0.883391 0.100535 3.030992 -8.160152 -1.482100 0.000000 0.000000 0.000000 8.441487 -0.005423 -2.659464 -13.164844 -4.425503 3.973857 2.828199 -1.932834 -1.397841 -2.527236 5.583768 2.240558 0.000000 0.000000 0.000000 0.000000 0.000000 0.000000 1.151037 6.355841 -6.670998 -4.358657 -13.707681 12.120360 1.638741 2.197128 -7.850814 -0.932778 -21.665951 28.217348 0.000000 0.000000 0.000000 0.000000 0.000000 0.000000 -7.871060 6.382544 -33.023485 52.319614 14.038126 -16.412584 -45.443888 -31.316522 -3.439632 0.000000 0.000000 0.000000 -7.164828 1.700669 -37.735184 -0.174820 4.150013 -4.967966 1.050465 -2.854675 5.159511 0.000000 0.000000 0.000000
221.157964 19.622673 447.633905 6.350345 2.172899 40.147120 -1.821355 2.396069 -40.094076 -1.366398 -1.185456 -0.013745 6.866650 -8.959925 -2.050889 0.000000 0.000000 0.000000 9.110688 0.097094 -2.427792 -12.537688 -6.422583 4.995131 2.788608 -1.886722 -1.356451 -1.791485 7.361305 0.944320 0.000000 0.000000 0.000000 0.000000 0.000000 0.000000 2.560023 3.912731 -5.991786 -4.959702 -9.031896 11.235527 1.580162 2.105685 -7.114764 -2.085156 -9.435116 21.333390 0.000000 0.000000 0.000000 0.000000 0.000000 0.000000 -7.444916 6.712916 -33.368610 46.148041 21.713075 -18.705036 -38.955018 -42.201091 -21.026783 0.000000 0.000000 0.000000 -6.711385 1.362457 -38.507953 -0.297822 4.049960 -4.562365 0.932624 -2.700473 5.362471 0.000000 0.000000 0.000000
